# xmcd
#
# Track frame offsets:
#	150
#	4621
#	22129
#	38900
#	54739
#	74778
#	78489
#	95023
#	104042
#	123579
#	139915
#	157742
#	176709
#	182797
#	202466
#	221657
#	244498
#	260808
#	273128
#	292340
#
# Disc length: 4009 seconds
#
# Revision: 1
# Processed by: cddbd v1.4PL0 Copyright (c) Steve Scherf et al.
# Submitted via: audiograbber 1.82.01
#
DISCID=4c0fa714
DTITLE=Faith Evans - Faithfully
DYEAR=2002
DGENRE=Soul
TTITLE0=Intro
TTITLE1=Alone In This World
TTITLE2=You Gets No Love f. P.Diddy&Loon
TTITLE3=Burnin' Up f. Loon
TTITLE4=I Love You
TTITLE5=Everything (interlude)
TTITLE6=Back To Love
TTITLE7=Faithful (interlude)
TTITLE8=Do Your Time
TTITLE9=Don't Cry
TTITLE10=Faithfully
TTITLE11=Brand New Man
TTITLE12=Ghetto (interlude)
TTITLE13=Where We Stand
TTITLE14=Heaven Only Knows
TTITLE15=Love Can't Hide
TTITLE16=Can't Believe f. Carl Thomas
TTITLE17=Love Song (interlude)
TTITLE18=Bonus - George Porgy f. Eric Benet
TTITLE19=Bonus - Emotionally (rmx) f. Carl Thomas
EXTD=
EXTT0=
EXTT1=
EXTT2=
EXTT3=
EXTT4=
EXTT5=
EXTT6=
EXTT7=
EXTT8=
EXTT9=
EXTT10=
EXTT11=
EXTT12=
EXTT13=
EXTT14=
EXTT15=
EXTT16=
EXTT17=
EXTT18=
EXTT19=
PLAYORDER=
